# xmcd
#
# Track frame offsets:
# 150
# 14015
# 34016
# 48182
# 63873
# 85171
# 99873
# 113694
#
# Disc length: 1711 seconds
#
#
# Revision: 0
# Processed by: cddbd v1.5.1PL2 Copyright (c) Steve Scherf et al.
# Submitted via: FreeRIP 2.944 
#
DISCID=5506ad08
DTITLE=Radio Sónica - Radio Sónica
DYEAR=2006
DGENRE=Jazz
TTITLE0=En Plena Contradicción
TTITLE1=Nómada
TTITLE2=A Primera Vista
TTITLE3=Caramelo
TTITLE4=Fantasmas
TTITLE5=Mi Lugar
TTITLE6=La Estatua del Jardín Botánico (Radio Futura Cover)
TTITLE7=Envidio a los Peces
EXTD=Recorded at Azulei Studios \n(Sarria - Lugo - Galicia - Spain]\nby Simón L. Caldeiro\n\nDavid Gayoso: vocals/guitar\nQuique Alvarado: bass\nMiguel Quiejas: Percussion\n\n
EXTT0=
EXTT1=
EXTT2=
EXTT3=
EXTT4=
EXTT5=
EXTT6=
EXTT7=
PLAYORDER=
